<svg width="28" height="30" viewBox="0 0 28 30" fill="none" xmlns="http://www.w3.org/2000/svg">
<path d="M25.5391 3.57422H2.46094C1.10567 3.57422 0 4.75758 0 6.21094V23.7891C0 25.2375 1.10075 26.4258 2.46094 26.4258H25.5391C26.8909 26.4258 28 25.2464 28 23.7891V6.21094C28 4.7625 26.8993 3.57422 25.5391 3.57422ZM25.1992 5.33203L14.0522 17.2754L2.8087 5.33203H25.1992ZM1.64062 23.4251V6.56654L9.54182 14.9595L1.64062 23.4251ZM2.80071 24.668L10.7069 16.1971L13.4772 19.1398C13.7979 19.4804 14.3154 19.4793 14.6348 19.1371L17.3359 16.243L25.1993 24.668H2.80071ZM26.3594 23.425L18.496 15L26.3594 6.57492V23.425Z" fill="white"/>
</svg>
