<svg width="304" height="38" viewBox="0 0 304 38" fill="none" xmlns="http://www.w3.org/2000/svg">
<path d="M36.538 37.1163H44.9162L26.6472 0.72777H18.269L0 37.1163H8.31996L11.8109 30.2544H33.1053L36.538 37.1163ZM30.0217 23.8605H14.8945L22.4581 8.36936L30.0217 23.8605Z" fill="white"/>
<path d="M84.4673 36.6484L72.1329 24.2243C79.871 22.8208 82.431 17.7784 82.431 12.788C82.431 6.49795 77.3692 0.779753 67.7692 0.72777C61.3111 0.72777 54.8529 0.675787 48.3948 0.675787V37.1163H56.0747V24.9521H63.4638L75.3328 37.1163H84.4673V36.6484ZM67.7692 7.12175C72.5983 7.12175 74.751 10.0328 74.751 12.9439C74.751 15.855 72.6565 18.7661 67.7692 18.7661H56.0747V7.12175H67.7692Z" fill="white"/>
<path d="M114.361 23.2886L94.405 0.72777H88.1796V37.1163H95.8596V12.58L117.27 37.1683V37.1163H122.041V0.675787H114.361V23.2886Z" fill="white"/>
<path d="M148.785 0C134.705 0 127.839 9.61696 127.839 19.1819C127.839 28.7469 134.472 37.948 148.785 37.948C163.097 37.948 169.556 28.539 169.672 19.13C169.788 9.61696 162.807 0 148.785 0ZM148.785 6.23803C158.385 6.23803 162.225 13.0999 162.108 19.2339C161.992 25.212 158.385 31.658 148.785 31.658C139.185 31.658 135.578 25.264 135.403 19.2859C135.229 13.1518 139.185 6.23803 148.785 6.23803Z" fill="white"/>
<path d="M186.271 23.0807H207.74V17.2585H186.271V23.0807Z" fill="white"/>
<path d="M252.258 23.2886L232.302 0.72777H226.077V37.1163H233.757V12.58L255.167 37.1683V37.1163H259.938V0.675787H252.258V23.2886Z" fill="white"/>
<path d="M273.547 11.3844V37.1163H266.448V11.3844H273.547ZM265.808 4.26265C265.808 9.2011 274.186 9.2011 274.186 4.26265C274.186 -0.675787 265.808 -0.675787 265.808 4.26265Z" fill="white"/>
<path d="M302.662 14.1395C299.345 11.5404 295.971 10.7606 291.491 10.7606C286.255 10.7606 279.389 12.8399 279.389 18.7661C279.389 24.5882 285.847 26.3557 291.258 26.7196C295.331 26.9275 296.96 27.6553 296.96 29.4227C296.96 31.2941 294.458 32.5417 291.782 32.4897C288.582 32.4378 283.927 30.9302 281.891 28.9029L278.4 33.4254C282.589 37.3242 287.127 38 291.666 38C299.869 38 304 34.1012 304 29.5787C304 22.7688 297.135 21.6772 291.724 21.3653C288.058 21.1573 286.371 20.2216 286.371 18.5581C286.371 16.9466 288.233 16.0109 291.607 16.0109C294.342 16.0109 296.669 16.5828 298.705 18.2982L302.662 14.1395ZM289.629 8.21341H293.527L302.371 1.03967V0.72777H295.389L291.666 3.89877L288.233 0.72777H281.018V1.03967L289.629 8.21341Z" fill="white"/>
</svg>
