<svg width="195" height="188" viewBox="0 0 195 188" fill="none" xmlns="http://www.w3.org/2000/svg">
<g clip-path="url(#clip0)" filter="url(#filter0_d)">
<path d="M102.499 45.8019L124.466 28.3871H153.225V0H81.6123V28.3871H102.499V45.8019ZM87.58 22.7097V5.67742H147.257V22.7097H122.307L108.467 33.682V22.7097H87.58Z" fill="#4169E1"/>
<path d="M93.5488 11.355H99.5166V17.0324H93.5488V11.355Z" fill="#4169E1"/>
<path d="M105.483 11.355H129.354V17.0324H105.483V11.355Z" fill="#4169E1"/>
<path d="M135.322 11.355H141.29V17.0324H135.322V11.355Z" fill="#4169E1"/>
<path d="M161.893 170.323L159.481 147.343C169.443 145.844 177.097 137.637 177.097 127.742V90.8386H165.161V86.916C165.161 83.0571 162.932 79.5919 159.348 77.8149C162.912 74.7004 165.161 70.2469 165.161 65.2902V59.6128C165.161 50.2193 157.132 42.5806 147.258 42.5806C137.384 42.5806 129.355 50.2193 129.355 59.6128V65.2902C129.355 72.6393 134.281 78.8961 141.15 81.2802L125.135 96.5161H108.402C108.069 91.784 104.652 87.659 99.8119 86.3422L87.5806 83.0211V77.9508C91.2333 74.8307 93.5484 70.3204 93.5484 65.2902V59.6128C93.5484 50.2193 85.519 42.5806 75.6452 42.5806C65.7713 42.5806 57.7419 50.2193 57.7419 59.6128V65.2902C57.7419 70.3176 60.0571 74.8279 63.7097 77.9508V83.0239L51.4784 86.3449C46.382 87.7269 42.8226 92.2178 42.8226 97.2632V107.871H30.8871V124.903H36.8548V170.323H10V176H195V170.323H161.893ZM135.323 124.903V111.885L156.466 91.7701C157.994 90.3161 158.904 88.3631 159.108 86.3255C159.134 86.5237 159.194 86.7109 159.194 86.916V122.064C159.194 126.759 155.177 130.581 150.242 130.581H126.371V124.903H135.323ZM126.371 147.613H141.574L143.961 170.323H126.371V147.613ZM147.571 147.613H153.51L155.896 170.323H149.958L147.571 147.613ZM165.161 122.064V96.5161H171.129V127.742C171.129 135.568 164.436 141.935 156.21 141.935H126.371V136.258H150.242C158.468 136.258 165.161 129.89 165.161 122.064ZM135.323 65.2902V59.6128C135.323 53.3505 140.675 48.258 147.258 48.258C153.841 48.258 159.194 53.3505 159.194 59.6128V65.2902C159.194 71.5526 153.841 76.6451 147.258 76.6451C140.675 76.6451 135.323 71.5526 135.323 65.2902ZM127.606 102.193L147.514 83.254C148.138 82.6607 149.001 82.3225 149.881 82.3225C151.725 82.3225 153.226 83.7502 153.226 85.505C153.226 86.3422 152.87 87.1627 152.247 87.756L131.103 107.871H99.5161C97.8698 107.871 96.5323 106.598 96.5323 105.032C96.5323 103.466 97.8698 102.193 99.5161 102.193H127.606ZM63.7097 59.6128C63.7097 53.3505 69.0626 48.258 75.6452 48.258C82.2277 48.258 87.5806 53.3505 87.5806 59.6128V65.2902C87.5806 71.5526 82.2277 76.6451 75.6452 76.6451C69.0626 76.6451 63.7097 71.5526 63.7097 65.2902V59.6128ZM75.6452 82.3225C77.7403 82.3225 79.7422 81.9594 81.6129 81.3287V84.3781C80.8728 85.4648 78.817 87.9999 75.6452 87.9999C72.4733 87.9999 70.4176 85.4648 69.6774 84.3781V81.3287C71.5482 81.9594 73.55 82.3225 75.6452 82.3225ZM48.7903 97.2632C48.7903 94.7391 50.5722 92.4964 53.1175 91.8034L65.41 88.4629C67.1408 90.6086 70.5093 93.6774 75.6452 93.6774C80.781 93.6774 84.1495 90.6086 85.8804 88.4601L98.1728 91.8006C100.459 92.4229 102.053 94.3136 102.372 96.5133H99.5161C94.5814 96.5133 90.5645 100.335 90.5645 105.029C90.5645 106.029 90.7787 106.977 91.1138 107.868H48.7903V97.2632ZM36.8548 113.548H129.355V119.226H36.8548V113.548ZM42.8226 136.258H51.7742V130.581H42.8226V124.903H120.403V130.581H57.7419V136.258H120.403V170.323H113.296L107.328 158.968H55.8974L49.9297 170.323H42.8226V136.258ZM106.623 170.323H56.6026L59.5865 164.645H103.639L106.623 170.323Z" fill="#4169E1"/>
</g>
<defs>
<filter id="filter0_d" x="0" y="0" width="195" height="188" filterUnits="userSpaceOnUse" color-interpolation-filters="sRGB">
<feFlood flood-opacity="0" result="BackgroundImageFix"/>
<feColorMatrix in="SourceAlpha" type="matrix" values="0 0 0 0 0 0 0 0 0 0 0 0 0 0 0 0 0 0 127 0"/>
<feOffset dx="-6" dy="8"/>
<feGaussianBlur stdDeviation="2"/>
<feColorMatrix type="matrix" values="0 0 0 0 0 0 0 0 0 0 0 0 0 0 0 0 0 0 0.2 0"/>
<feBlend mode="normal" in2="BackgroundImageFix" result="effect1_dropShadow"/>
<feBlend mode="normal" in="SourceGraphic" in2="effect1_dropShadow" result="shape"/>
</filter>
<clipPath id="clip0">
<rect width="195" height="188" fill="white" />
</clipPath>
</defs>
</svg>
