<svg width="28" height="30" viewBox="0 0 28 30" fill="none" xmlns="http://www.w3.org/2000/svg">
<path d="M19.25 0H8.75C3.91825 0 0 4.19813 0 9.375V20.625C0 25.8019 3.91825 30 8.75 30H19.25C24.0817 30 28 25.8019 28 20.625V9.375C28 4.19813 24.0817 0 19.25 0ZM25.375 20.625C25.375 24.2437 22.6275 27.1875 19.25 27.1875H8.75C5.3725 27.1875 2.625 24.2437 2.625 20.625V9.375C2.625 5.75625 5.3725 2.8125 8.75 2.8125H19.25C22.6275 2.8125 25.375 5.75625 25.375 9.375V20.625Z" fill="white"/>
<path d="M14 7.5C10.1342 7.5 7 10.8581 7 15C7 19.1419 10.1342 22.5 14 22.5C17.8658 22.5 21 19.1419 21 15C21 10.8581 17.8658 7.5 14 7.5ZM14 19.6875C11.5885 19.6875 9.625 17.5837 9.625 15C9.625 12.4144 11.5885 10.3125 14 10.3125C16.4115 10.3125 18.375 12.4144 18.375 15C18.375 17.5837 16.4115 19.6875 14 19.6875Z" fill="white"/>
<path d="M21.5255 7.93697C22.0407 7.93697 22.4583 7.48954 22.4583 6.9376C22.4583 6.38567 22.0407 5.93823 21.5255 5.93823C21.0104 5.93823 20.5928 6.38567 20.5928 6.9376C20.5928 7.48954 21.0104 7.93697 21.5255 7.93697Z" fill="white"/>
</svg>
