<svg width="196" height="187" viewBox="0 0 196 187" fill="none" xmlns="http://www.w3.org/2000/svg">
<g filter="url(#filter0_d)">
<path d="M160.408 62.8474C172.506 53.3902 168.327 34.6878 153.209 30.8118C149.259 29.799 145.169 30.0097 141.421 31.3762L129.409 11.4653C124.521 3.36277 112.397 3.14805 107.192 11.0481C92.4178 33.4744 72.7346 52.5484 49.3662 67.0227C48.0355 67.8452 47.5422 69.5452 48.3296 70.9288C48.456 71.1502 68.353 104.127 68.4848 104.345C69.3404 105.763 71.2353 106.25 72.7195 105.431C74.2021 104.612 74.7101 102.797 73.8541 101.378L55.1955 70.4501C77.4777 56.1949 97.2121 37.3223 112.437 14.2125C115.16 10.0787 121.49 10.207 124.039 14.432L167.051 85.7269C169.603 89.9575 166.543 95.262 161.449 95.4519C132.867 96.5177 104.884 103.514 79.2994 116.036C79.1905 116.089 50.1831 132.119 48.1855 133.223C43.0002 136.088 36.3467 134.381 33.3536 129.419L17.6513 103.391C14.6578 98.429 16.4407 92.0616 21.6256 89.1969L40.524 78.7551C42.0066 77.9359 42.5147 76.1213 41.6587 74.7025C40.8027 73.2833 38.9062 72.7975 37.424 73.6167L18.5255 84.0585C10.38 88.5587 7.57912 98.5621 12.2819 106.358L27.9846 132.386C32.6878 140.181 43.1409 142.861 51.2863 138.361L52.0013 137.966L71.388 170.1C74.1727 174.716 80.3302 176.297 85.1562 173.631L91.9559 169.874C96.7804 167.208 98.4304 161.315 95.645 156.698L81.905 133.923C81.049 132.505 79.1529 132.018 77.6703 132.838C76.1877 133.657 75.6797 135.471 76.5357 136.89L90.2756 159.665C91.3475 161.441 90.7127 163.71 88.8558 164.735L82.0562 168.492C80.1996 169.518 77.8296 168.91 76.7577 167.134L57.371 134.999L82.193 121.284C106.482 109.407 133.504 102.431 161.691 101.381C171.459 101.016 177.301 90.849 172.42 82.7598L160.408 62.8474ZM159.522 42.3569C162.583 47.43 161.483 53.7254 157.247 57.6078L144.581 36.6133C150.133 35.0546 156.412 37.2018 159.522 42.3569ZM189.843 29.1671L181.822 33.599C180.338 34.4186 178.443 33.9317 177.587 32.5132C176.731 31.0944 177.239 29.2798 178.722 28.4606L186.743 24.0287C188.227 23.2091 190.122 23.6961 190.978 25.1145C191.834 26.5334 191.326 28.3479 189.843 29.1671ZM155.348 12.2582L157.304 5.27298C157.747 3.69022 159.446 2.75162 161.101 3.17512C162.755 3.59936 163.736 5.22625 163.293 6.80864L161.337 13.7938C160.895 15.3725 159.199 16.3159 157.54 15.8917C155.886 15.4674 154.905 13.8409 155.348 12.2582ZM195.893 60.8456C195.522 62.171 194.27 63.0451 192.901 63.0451C192.339 63.0451 192.732 63.1062 184.797 61.0714C183.143 60.6472 182.162 59.0207 182.605 57.4379C183.048 55.8552 184.748 54.9169 186.402 55.3401L193.701 57.2117C195.355 57.6359 196.337 59.2628 195.893 60.8456Z" fill="#4169E1"/>
</g>
<defs>
<filter id="filter0_d" x="0" y="0" width="196" height="190" filterUnits="userSpaceOnUse" color-interpolation-filters="sRGB">
<feFlood flood-opacity="0" result="BackgroundImageFix"/>
<feColorMatrix in="SourceAlpha" type="matrix" values="0 0 0 0 0 0 0 0 0 0 0 0 0 0 0 0 0 0 127 0"/>
<feOffset dx="-6" dy="8"/>
<feGaussianBlur stdDeviation="2"/>
<feColorMatrix type="matrix" values="0 0 0 0 0 0 0 0 0 0 0 0 0 0 0 0 0 0 0.2 0"/>
<feBlend mode="normal" in2="BackgroundImageFix" result="effect1_dropShadow"/>
<feBlend mode="normal" in="SourceGraphic" in2="effect1_dropShadow" result="shape"/>
</filter>
</defs>
</svg>
