<svg width="28" height="30" viewBox="0 0 28 30" fill="none" xmlns="http://www.w3.org/2000/svg">
<g clip-path="url(#clip0)">
<path d="M27.2378 22.017L23.3303 17.8304C21.9348 16.3352 19.5624 16.9333 19.0042 18.877C18.5855 20.2228 17.19 20.9704 15.934 20.6713C13.143 19.9237 9.37503 16.0361 8.67727 12.8962C8.25861 11.5504 9.09592 10.0552 10.3519 9.60673C12.1661 9.00864 12.7243 6.46679 11.3288 4.97158L7.42129 0.784986C6.30486 -0.261662 4.63023 -0.261662 3.65336 0.784986L1.00185 3.62589C-1.64966 6.61631 1.28096 14.5409 7.83995 21.5684C14.3989 28.5959 21.7952 31.8854 24.5863 28.8949L27.2378 26.054C28.2147 24.8579 28.2147 23.0636 27.2378 22.017Z" fill="white"/>
</g>
<defs>
<clipPath id="clip0">
<rect width="28" height="30" fill="white"/>
</clipPath>
</defs>
</svg>
